<svg xmlns="http://www.w3.org/2000/svg" viewBox="-96 -66 160 142" role="img" aria-label="Tijorat &amp; Rushd">
  <g transform="scale(100,-100)" fill="#ECF1FB">
    <path d="M 0.4449,0.5931 L -0.5128,0.5931 C -0.6038,0.5931 -0.7065,0.5388 -0.7578,0.4636 L -0.8733,0.2943 L 0.0837,0.2943 C 0.1747,0.2943 0.2776,0.3486 0.329,0.4237 Z" />
    <path d="M -0.896,-0.6995 L -0.3431,0.1073 C -0.2917,0.1824 -0.1887,0.2366 -0.0977,0.2366 L 0.2422,0.2366 C 0.2925,0.2366 0.3427,0.2252 0.388,0.2033 C 0.6398,0.0819 0.6398,-0.2806 0.388,-0.402 C 0.3427,-0.4239 0.2925,-0.4353 0.2422,-0.4353 L -0.2516,-0.4353 L -0.1072,-0.2289 C -0.0838,-0.1954 -0.0372,-0.1711 0.0037,-0.1711 L 0.2419,-0.1711 C 0.3347,-0.1711 0.3347,-0.0277 0.2419,-0.0277 L 0.0144,-0.0277 C -0.0265,-0.0277 -0.0728,-0.0521 -0.0959,-0.0859 L -0.4268,-0.5701 C -0.4782,-0.6453 -0.581,-0.6995 -0.672,-0.6995 Z" />
  </g>
</svg>
